#!OML:ASF X:\für Bonn\!DataBase\2005_08_12_Daniel\c3d\Daniel.ASF
:FULLY-SPECIFIED
:DEGREES
1934
root -2.76111 17.1348 -4.22288 -58.1618 -71.1495 28.2759
lowerback 65.1909 9.89849 5.73617
upperback 12.3626 11.3401 -5.05193
thorax -5.68757 4.9344 -12.7893
lowerneck 1.40293 -4.37 -8.90448
upperneck 10.7421 -5.85172 1.33226
head 3.61297 -3.20731 1.8312
rclavicle 1.13705e-013 -4.85035e-014
rhumerus 44.9499 10.3629 -81.2218
rradius 127.338
rwrist -21.0322
rhand -17.1645 36.5078
rfingers 7.12502
rthumb 9.07657 6.7231
lclavicle 1.13705e-013 -4.85035e-014
lhumerus -42.4423 13.377 71.324
lradius 25.2548
lwrist -8.6808
lhand -9.8511 -4.44665
lfingers 7.12502
lthumb 16.127 24.9024
rfemur 24.315 1.09894 14.6558
rtibia 17.5809
rfoot -20.5121 -18.9848
rtoes -9.77676
lfemur -88.3281 -3.9939 -45.6636
ltibia 121.786
lfoot 18.5835 -4.76539
ltoes -1.88451
1935
root -2.75409 17.1227 -4.25011 -57.0492 -70.8963 27.2065
lowerback 65.3953 9.69394 5.70963
upperback 12.3121 11.0897 -5.07943
thorax -5.79104 4.80828 -12.7198
lowerneck 1.33653 -4.30655 -8.8915
upperneck 10.8121 -5.76106 1.33562
head 3.64431 -3.16361 1.83158
rclavicle 4.09496e-014 -6.67916e-014
rhumerus 44.7266 10.5349 -81.5006
rradius 127.724
rwrist -21.2875
rhand -17.2766 36.5466
rfingers 7.12502
rthumb 8.9684 6.75719
lclavicle 4.09496e-014 -6.67916e-014
lhumerus -42.4658 13.7879 70.8336
lradius 24.127
lwrist -10.7878
lhand -9.19928 -4.10492
lfingers 7.12502
lthumb 16.7546 25.1921
rfemur 24.1085 0.601235 14.6594
rtibia 17.8182
rfoot -20.5957 -18.8751
rtoes -9.60462
lfemur -88.3586 -3.71968 -45.9451
ltibia 121.725
lfoot 18.596 -4.76237
ltoes -1.78096
1936
root -2.74749 17.1147 -4.27488 -56.0016 -70.6208 26.2144
lowerback 65.5541 9.49818 5.70226
upperback 12.2408 10.8706 -5.11099
thorax -5.90956 4.69927 -12.6768
lowerneck 1.45802 -4.25028 -8.87419
upperneck 10.8175 -5.70255 1.38419
head 3.62083 -3.13317 1.84947
rclavicle -1.59028e-014 5.12864e-014
rhumerus 44.4649 10.5929 -81.7473
rradius 128.117
rwrist -21.4265
rhand -17.4774 36.5096
rfingers 7.12502
rthumb 8.77465 6.71202
lclavicle -1.59028e-014 5.12864e-014
lhumerus -42.578 14.0859 70.3335
lradius 23.16
lwrist -12.949
lhand -8.63241 -3.93085
lfingers 7.12502
lthumb 17.3003 25.3191
rfemur 23.8176 0.204188 14.6936
rtibia 18.2271
rfoot -20.8704 -18.8171
rtoes -9.49146
lfemur -88.1617 -3.36991 -46.1918
ltibia 121.552
lfoot 18.5441 -4.80681
ltoes -1.64015
1937
root -2.74274 17.1044 -4.29813 -55.0093 -70.3242 25.3161
lowerback 65.6277 9.31791 5.67348
upperback 12.1741 10.6612 -5.13984
thorax -6.02484 4.59617 -12.6246
lowerneck 1.59467 -4.1932 -8.87544
upperneck 10.8552 -5.64701 1.4649
head 3.60827 -3.10484 1.88151
rclavicle -1.66979e-014 1.19668e-013
rhumerus 44.2302 10.5731 -82.0087
rradius 128.512
rwrist -21.5456
rhand -17.5162 36.4345
rfingers 7.12502
rthumb 8.73726 6.63529
lclavicle -1.66979e-014 1.19668e-013
lhumerus -42.7285 14.2691 69.9143
lradius 22.4073
lwrist -14.9159
lhand -8.12369 -3.72343
lfingers 7.12502
lthumb 17.7898 25.4828
rfemur 23.4428 -0.173974 14.7018
rtibia 18.725
rfoot -21.1362 -18.7554
rtoes -9.26827
lfemur -87.8499 -3.00536 -46.4127
ltibia 121.312
lfoot 18.782 -4.79323
ltoes -0.390827
1938
root -2.74121 17.089 -4.31934 -53.9993 -70.0224 24.4235
lowerback 65.6419 9.13567 5.66085
upperback 12.1016 10.4673 -5.164
thorax -6.14352 4.50198 -12.5799
lowerneck 1.78797 -4.144 -8.88307
upperneck 10.8616 -5.60817 1.55418
head 3.57562 -3.08423 1.91823
rclavicle 2.14687e-014 -1.43125e-013
rhumerus 44.0115 10.4739 -82.2042
rradius 128.883
rwrist -21.6054
rhand -17.5672 36.3689
rfingers 7.12502
rthumb 8.68799 6.5677
lclavicle 2.14687e-014 -1.43125e-013
lhumerus -42.9099 14.4299 69.4956
lradius 21.7713
lwrist -16.9577
lhand -7.74668 -3.59938
lfingers 7.12502
lthumb 18.1526 25.5736
rfemur 22.9982 -0.510983 14.7432
rtibia 19.3309
rfoot -21.5194 -18.7147
rtoes -9.15782
lfemur -87.4837 -2.70519 -46.5751
ltibia 121.038
lfoot 19.2253 -4.69687
ltoes 1.4191
1939
root -2.74187 17.0751 -4.33825 -53.0908 -69.7048 23.6863
lowerback 65.5767 8.97794 5.61995
upperback 12.0124 10.2868 -5.20839
thorax -6.28012 4.41567 -12.5535
lowerneck 2.10772 -4.08954 -8.90284
upperneck 10.8456 -5.57906 1.69568
head 3.51467 -3.06745 1.97696
rclavicle -1.78906e-014 7.95139e-016
rhumerus 43.8378 10.2919 -82.3423
rradius 129.172
rwrist -21.6236
rhand -17.6595 36.363
rfingers 7.12502
rthumb 8.59897 6.55816
lclavicle -1.78906e-014 7.95139e-016
lhumerus -43.0859 14.4778 69.1313
lradius 21.3
lwrist -18.6366
lhand -7.37528 -3.40864
lfingers 7.12502
lthumb 18.5099 25.7307
rfemur 22.4265 -0.784098 14.762
rtibia 20.0918
rfoot -22.0134 -18.6499
rtoes -9.00111
lfemur -87.0338 -2.38922 -46.7105
ltibia 120.709
lfoot 19.5201 -4.80829
ltoes 2.15044
1940
root -2.74384 17.0565 -4.35488 -52.1935 -69.4111 22.9593
lowerback 65.4781 8.81524 5.60596
upperback 11.9306 10.1196 -5.24927
thorax -6.40388 4.33764 -12.5383
lowerneck 2.41023 -4.04435 -8.88589
upperneck 10.8332 -5.55647 1.78693
head 3.45505 -3.05419 2.01134
rclavicle -3.81667e-014 -4.45278e-014
rhumerus 43.7551 10.0694 -82.3783
rradius 129.381
rwrist -21.5297
rhand -17.827 36.4548
rfingers 7.12502
rthumb 8.43729 6.64333
lclavicle -3.81667e-014 -4.45278e-014
lhumerus -43.2264 14.6774 68.698
lradius 20.9117
lwrist -20.3521
lhand -6.98436 -3.19371
lfingers 7.12502
lthumb 18.8859 25.9094
rfemur 21.8115 -1.05006 14.8032
rtibia 20.9432
rfoot -22.5076 -18.5946
rtoes -8.76934
lfemur -86.3323 -2.02175 -46.7241
ltibia 120.262
lfoot 19.662 -4.9112
ltoes 2.01769
